<svg width="16" height="14" viewBox="0 0 16 14" fill="none" xmlns="http://www.w3.org/2000/svg">
  <path d="M15.2095 9.51558L10.4769 1.62742C9.85572 0.592373 8.90552 0 7.86807 0C6.83062 0 5.88042 0.592372 5.25923 1.62582L0.526659 9.51558C-0.102537 10.5634 -0.17138 11.6809 0.33854 12.5815C0.84766 13.4829 1.84189 14 3.06505 14H12.6711C13.8943 14 14.8885 13.4829 15.3976 12.5823C15.9075 11.6817 15.8387 10.5642 15.2095 9.51558ZM7.86807 11.2375C7.18444 11.2375 6.62729 10.6811 6.62729 9.99748C6.62729 9.31305 7.18364 8.7559 7.86807 8.7559C8.5525 8.7559 9.10885 9.31305 9.10885 9.99748C9.10885 10.6811 8.5517 11.2375 7.86807 11.2375ZM9.17529 5.29453C9.16649 5.31934 8.05379 8.07067 8.05379 8.07067C8.02337 8.14592 7.94972 8.19555 7.86887 8.19555C7.78802 8.19555 7.71438 8.14592 7.68396 8.07067L6.57046 5.31854C6.5032 5.15187 6.46816 4.97395 6.46719 4.79421C6.46719 4.02173 7.09559 3.39333 7.86807 3.39333C8.09495 3.39391 8.3183 3.44953 8.51896 3.5554C8.71962 3.66128 8.8916 3.81425 9.02014 4.0012C9.14868 4.18815 9.22995 4.4035 9.25698 4.62876C9.284 4.85402 9.25597 5.08248 9.17529 5.29453Z" fill="white"/>
</svg>
