<svg width="14" height="14" viewBox="0 0 14 14" fill="none" xmlns="http://www.w3.org/2000/svg">
  <path d="M3.036 1.30979L9.647 4.1428L7 5.27679L0.427 2.45979C0.575 2.3088 0.756 2.1868 0.962 2.1078L3.036 1.30979ZM4.374 0.795795L5.924 0.199795C6.61695 -0.0665984 7.38405 -0.0665984 8.077 0.199795L13.039 2.1078C13.244 2.18779 13.425 2.3078 13.573 2.45979L10.917 3.5978L4.374 0.795795ZM13.994 3.36779L7.5 6.15079V13.6008C7.69713 13.5676 7.89043 13.5146 8.077 13.4428L13.039 11.5338C13.3219 11.4249 13.5651 11.2328 13.7367 10.9829C13.9082 10.733 14 10.4369 14 10.1338V3.50779C14.0002 3.46104 13.9978 3.4143 13.993 3.36779H13.994ZM6.5 13.6008V6.15079L0.00699997 3.36779C0.00249347 3.41433 0.000157633 3.46104 0 3.50779V10.1338C4.01425e-05 10.437 0.0919926 10.7332 0.263731 10.9831C0.435469 11.233 0.678928 11.425 0.962 11.5338L5.923 13.4428C6.111 13.5148 6.304 13.5678 6.5 13.6008Z" fill="#938E8E"/>
</svg>
