<svg width="68" height="48" viewBox="0 0 68 48" fill="none" xmlns="http://www.w3.org/2000/svg">
<path d="M15.3813 0C18.836 4.92438 21.1081 11.0454 21.6234 17.7999C22.0227 22.8086 21.3784 27.8457 19.7313 32.5927C20.7676 31.3558 22.0412 30.3391 23.477 29.6026C24.9127 28.8661 26.4815 28.4248 28.0907 28.3046C28.2314 28.2934 28.3694 28.2877 28.5074 28.2821C28.7326 26.8997 29.8307 18.5685 25.7566 9.4743C22.7496 2.75641 17.3099 0.577186 15.3813 0ZM20.3845 0.104175C20.3845 0.104175 27.1587 3.10554 29.749 15.722C31.458 24.0419 29.887 29.3379 28.6172 31.9761C32.0738 28.7001 36.5549 26.7171 41.304 26.3619C43.7254 26.1789 46.0763 26.4182 48.2922 27.0179C48.0106 24.9316 46.6225 17.4057 40.6001 10.3499C31.413 -0.413885 20.3845 0.104175 20.3845 0.104175ZM62.1024 27.4177L11.6479 36.0023C12.955 36.4547 14.0814 37.3164 14.8599 38.4596C15.6384 39.6029 16.0276 40.9666 15.9697 42.3486C15.9478 42.9318 15.8474 43.5095 15.6713 44.066C15.8262 43.99 23.2423 40.4762 33.5275 38.3392C42.6442 36.4444 49.6408 37.3256 51.2231 37.5706C52.2183 35.2069 53.702 33.0804 55.5769 31.3307C57.4519 29.5809 59.6757 28.2474 62.1024 27.4177ZM44.6094 38.8995C38.083 38.8995 31.5425 40.2932 25.9874 42.1824C17.9125 44.9304 17.6788 45.9778 10.3612 45.119C5.19186 44.5137 0 41.9797 0 41.9797C0 41.9797 6.77419 47.5263 13.8356 47.9684C19.4272 48.3203 23.704 45.654 28.8002 43.9872C36.2923 41.5349 41.5011 41.2561 46.4057 41.242C54.5117 41.2195 67.573 44.7023 67.573 44.7023C67.573 44.7023 61.6322 41.7629 53.4024 39.8596C50.517 39.2089 47.5672 38.885 44.6094 38.8995Z" fill="#E8E8E8"/>
</svg>
