<svg width="27" height="25" viewBox="0 0 27 25" fill="none" xmlns="http://www.w3.org/2000/svg">
  <path d="M2.60001 0.800049C1.96349 0.800049 1.35304 1.05291 0.902956 1.50299C0.452869 1.95308 0.200012 2.56353 0.200012 3.20005V9.60005C0.200012 10.2366 0.452869 10.847 0.902956 11.2971C1.35304 11.7472 1.96349 12 2.60001 12H17C17.6365 12 18.247 11.7472 18.6971 11.2971C19.1472 10.847 19.4 10.2366 19.4 9.60005V3.20005C19.4 2.56353 19.1472 1.95308 18.6971 1.50299C18.247 1.05291 17.6365 0.800049 17 0.800049H2.60001ZM2.60001 13.6C1.96349 13.6 1.35304 13.8529 0.902956 14.303C0.452869 14.7531 0.200012 15.3635 0.200012 16V22.4C0.200012 23.0366 0.452869 23.647 0.902956 24.0971C1.35304 24.5472 1.96349 24.8 2.60001 24.8H17C17.6365 24.8 18.247 24.5472 18.6971 24.0971C19.1472 23.647 19.4 23.0366 19.4 22.4V16C19.4 15.3635 19.1472 14.7531 18.6971 14.303C18.247 13.8529 17.6365 13.6 17 13.6H2.60001ZM24.2 15.8992C23.7271 16.0204 23.2329 16.0319 22.7549 15.9329C22.2769 15.8339 21.8278 15.627 21.442 15.328C21.0561 15.0291 20.7436 14.6459 20.5284 14.2078C20.3131 13.7697 20.2008 13.2882 20.2 12.8C20.1998 12.0905 20.4355 11.401 20.8699 10.84C21.3044 10.2789 21.913 9.87824 22.6 9.70085C23.1248 9.56571 23.6752 9.56571 24.2 9.70085C24.8876 9.87764 25.4969 10.2781 25.932 10.8392C26.3671 11.4002 26.6032 12.0901 26.6032 12.8C26.6032 13.51 26.3671 14.1999 25.932 14.7609C25.4969 15.322 24.8876 15.7225 24.2 15.8992ZM23.4 0.800049C23.6122 0.800049 23.8157 0.884334 23.9657 1.03436C24.1157 1.18439 24.2 1.38788 24.2 1.60005V8.06565C23.6704 7.97673 23.1296 7.97673 22.6 8.06565V1.60005C22.6 1.38788 22.6843 1.18439 22.8343 1.03436C22.9844 0.884334 23.1878 0.800049 23.4 0.800049ZM23.4 17.6C23.128 17.6 22.8608 17.5776 22.6 17.5344V24C22.6 24.2122 22.6843 24.4157 22.8343 24.5657C22.9844 24.7158 23.1878 24.8 23.4 24.8C23.6122 24.8 23.8157 24.7158 23.9657 24.5657C24.1157 24.4157 24.2 24.2122 24.2 24V17.5344C23.9392 17.5776 23.672 17.6 23.4 17.6Z" fill="black"/>
</svg>
