<svg width="18" height="16" viewBox="0 0 18 16" fill="none" xmlns="http://www.w3.org/2000/svg">
  <path d="M1.58613 4.29437C1.48316 4.07869 1.44963 3.83637 1.49017 3.60084C1.53071 3.3653 1.64333 3.14814 1.8125 2.97931L2.90119 1.89061C3.07006 1.72174 3.28712 1.60936 3.52249 1.56896C3.75786 1.52856 3.99997 1.56212 4.21548 1.66502L5.35115 0.529354C5.63992 0.240671 6.03152 0.0784979 6.43984 0.0784979C6.84816 0.0784979 7.23977 0.240671 7.52854 0.529354L9.7067 2.70752C9.99539 2.99629 10.1576 3.38789 10.1576 3.79621C10.1576 4.20454 9.99539 4.59614 9.7067 4.88491L8.61724 5.97361L8.57874 5.93511L5.857 8.65762L5.89549 8.69612L4.8068 9.78481C4.6638 9.92787 4.49402 10.0414 4.30715 10.1188C4.12028 10.1962 3.91999 10.2361 3.71772 10.2361C3.51544 10.2361 3.31515 10.1962 3.12828 10.1188C2.94142 10.0414 2.77163 9.92787 2.62863 9.78481L0.451242 7.60742C0.308184 7.46442 0.194702 7.29464 0.117276 7.10777C0.0398509 6.9209 0 6.72061 0 6.51834C0 6.31607 0.0398509 6.11578 0.117276 5.92891C0.194702 5.74204 0.308184 5.57226 0.451242 5.42926L1.58613 4.29437ZM6.94492 9.74555L9.66744 7.02381L12.4284 9.78481L9.7067 12.5073L6.94569 9.74632L6.94492 9.74555ZM10.7946 13.5953L13.5171 10.8735L14.8784 12.2348C15.2368 12.5962 15.4375 13.085 15.4364 13.594C15.4354 14.103 15.2327 14.591 14.8728 14.9509C14.5129 15.3109 14.0251 15.5137 13.5161 15.5149C13.007 15.5161 12.5182 15.3156 12.1567 14.9573L10.7954 13.596L10.7946 13.5953ZM12.9736 1.61805L16.2397 4.88491L13.2838 7.84071C12.8119 8.31269 11.9411 8.20875 11.3397 7.60742L10.2511 6.51796C9.64973 5.9174 9.54501 5.0466 10.0178 4.57385L12.9736 1.61805ZM14.0615 0.529354L14.2948 0.296062C14.7668 -0.176681 15.6376 -0.0719695 16.2389 0.529354L17.3276 1.61805C17.9289 2.21937 18.0336 3.09018 17.5609 3.56292L17.3276 3.79621L14.0615 0.529354ZM4.26245 12.5073L5.89472 10.8735C5.96621 10.802 6.05108 10.7452 6.1445 10.7065C6.23792 10.6678 6.33806 10.6478 6.43919 10.6478C6.54032 10.6477 6.64046 10.6676 6.73391 10.7063C6.82736 10.7449 6.91227 10.8016 6.98381 10.8731C7.05534 10.9446 7.1121 11.0295 7.15083 11.1229C7.18956 11.2163 7.20952 11.3165 7.20955 11.4176C7.20959 11.5187 7.18971 11.6189 7.15104 11.7123C7.11237 11.8058 7.05568 11.8907 6.98419 11.9622L5.35115 13.5968C5.49549 13.7412 5.57657 13.937 5.57657 14.1411C5.57657 14.3453 5.49549 14.5411 5.35115 14.6855L4.26245 15.7742C4.19094 15.8458 4.10603 15.9026 4.01256 15.9413C3.91909 15.9801 3.8189 16 3.71772 16C3.61653 16 3.51634 15.9801 3.42287 15.9413C3.32941 15.9026 3.24449 15.8458 3.17298 15.7742L2.08429 14.6855C1.93994 14.5411 1.85886 14.3453 1.85886 14.1411C1.85886 13.937 1.93994 13.7412 2.08429 13.5968L3.17298 12.5081C3.24449 12.4365 3.32941 12.3797 3.42287 12.341C3.51634 12.3022 3.61653 12.2823 3.71772 12.2823C3.8189 12.2823 3.91909 12.3022 4.01256 12.341C4.10603 12.3797 4.19094 12.4365 4.26245 12.5081V12.5073Z" fill="white"/>
</svg>
