<svg width="12" height="11" viewBox="0 0 12 11" fill="none" xmlns="http://www.w3.org/2000/svg">
  <path fill-rule="evenodd" clip-rule="evenodd" d="M2.28 0.22003C2.13783 0.0875496 1.94978 0.0154264 1.75548 0.0188546C1.56118 0.0222829 1.37579 0.100995 1.23838 0.238408C1.10097 0.375821 1.02225 0.561206 1.01883 0.755507C1.0154 0.949808 1.08752 1.13785 1.22 1.28003L4.94 5.00003L1.22 8.72003C1.14631 8.78869 1.08721 8.87149 1.04622 8.96349C1.00523 9.05549 0.983186 9.1548 0.981409 9.25551C0.979633 9.35621 0.998157 9.45624 1.03588 9.54963C1.0736 9.64302 1.12974 9.72785 1.20096 9.79907C1.27218 9.87029 1.35702 9.92643 1.4504 9.96415C1.54379 10.0019 1.64382 10.0204 1.74452 10.0186C1.84523 10.0168 1.94454 9.9948 2.03654 9.95381C2.12854 9.91282 2.21134 9.85372 2.28 9.78003L6 6.06003L9.72 9.78003C9.78866 9.85372 9.87146 9.91282 9.96346 9.95381C10.0555 9.9948 10.1548 10.0168 10.2555 10.0186C10.3562 10.0204 10.4562 10.0019 10.5496 9.96415C10.643 9.92643 10.7278 9.87029 10.799 9.79907C10.8703 9.72785 10.9264 9.64302 10.9641 9.54963C11.0018 9.45624 11.0204 9.35621 11.0186 9.25551C11.0168 9.1548 10.9948 9.05549 10.9538 8.96349C10.9128 8.87149 10.8537 8.78869 10.78 8.72003L7.06 5.00003L10.78 1.28003C10.9125 1.13785 10.9846 0.949808 10.9812 0.755507C10.9777 0.561206 10.899 0.375821 10.7616 0.238408C10.6242 0.100995 10.4388 0.0222829 10.2445 0.0188546C10.0502 0.0154264 9.86218 0.0875496 9.72 0.22003L6 3.94003L2.28 0.22003Z" fill="black"/>
</svg>
